<svg id="dhl_icons" xmlns="http://www.w3.org/2000/svg" width="48" height="48" viewBox="0 0 48 48">
  <path d="M19.671,21.5415l-5.777-1.8776A11.02,11.02,0,0,1,23,13.0507v6.05A4.9863,4.9863,0,0,0,19.671,21.5415Zm8.661.0056,5.78-1.8708A11.02,11.02,0,0,0,25,13.0507v6.05A4.9865,4.9865,0,0,1,28.332,21.5471ZM19,24a4.91,4.91,0,0,1,.056-.5552L13.28,21.5676a10.9033,10.9033,0,0,0,3.4841,10.6967l3.56-4.8993A4.9651,4.9651,0,0,1,19,24Zm5,5a4.9616,4.9616,0,0,1-2.0609-.4552L18.3824,33.44a10.8951,10.8951,0,0,0,11.2671-.02l-3.5718-4.8851A4.96,4.96,0,0,1,24,29Zm20-5A20,20,0,1,1,24,4,20,20,0,0,1,44,24Zm-7,0A13,13,0,1,0,24,37,13,13,0,0,0,37,24Zm-8,0a4.9639,4.9639,0,0,1-1.3116,3.35l3.5748,4.8891a10.9034,10.9034,0,0,0,3.46-10.6582l-5.7786,1.87A4.9173,4.9173,0,0,1,29,24Zm-5-3a3,3,0,1,0,3,3A3.0033,3.0033,0,0,0,24,21Z"/>
</svg>
