<svg id="dhl_icons" xmlns="http://www.w3.org/2000/svg" width="48" height="48" viewBox="0 0 48 48">
  <path d="M24,4A20,20,0,1,0,44,24,20,20,0,0,0,24,4ZM20.9223,37.6479a13.9427,13.9427,0,0,1-10.4049-17.35A17.0009,17.0009,0,0,1,21.0055,36C21.0055,36.5564,20.9745,37.1055,20.9223,37.6479ZM25.0054,26h-2V17.9707a24.877,24.877,0,0,1-10.05-2.5447,13.9663,13.9663,0,0,1,22.1017,0,24.8789,24.8789,0,0,1-10.0519,2.5449Zm2.0833,11.6484c-.0522-.5427-.0832-1.0918-.0832-1.6484a17,17,0,0,1,10.49-15.7031A13.943,13.943,0,0,1,27.0887,37.6484Z"/>
</svg>
