<svg id="dhl_icons" xmlns="http://www.w3.org/2000/svg" width="48" height="48" viewBox="0 0 48 48">
  <path d="M20.2728,31.97,28.47,23.7731,27,40H21ZM24,14a3.5,3.5,0,1,0-3.5-3.5A3.5,3.5,0,0,0,24,14Zm15.1013,2H36.2427l-4.9665,4.9664L33,40h6l1.9933-22.0093A1.8631,1.8631,0,0,0,39.1013,16ZM15,40l.2746-3.0319L12.2427,40ZM12,14a3.5,3.5,0,1,0-3.5-3.5A3.5,3.5,0,0,0,12,14ZM39.8787,3.8787,36.688,7.0693a3.4954,3.4954,0,0,0-4.1187,4.1187L27.665,16.0923A1.9316,1.9316,0,0,0,27.1013,16H20.8987a1.8631,1.8631,0,0,0-1.892,1.9907l.5614,6.1985L16.12,27.6378l.8737-9.6471A1.8631,1.8631,0,0,0,15.1013,16H8.8987a1.8631,1.8631,0,0,0-1.892,1.9907l1.5579,17.202-4.6859,4.686,2.8284,2.8284,36-36Z"/>
</svg>
