<svg id="dhl_icons" xmlns="http://www.w3.org/2000/svg" width="48" height="48" viewBox="0 0 48 48">
  <path d="M24,4A20,20,0,1,0,44,24,20,20,0,0,0,24,4Zm5.6841,6.0923a3.6513,3.6513,0,0,1,1.6318,0L36,11l-.8148,2h-9.37L25,11ZM26.05,15H34.95a4.4322,4.4322,0,0,1,.05.5,4.5,4.5,0,0,1-9,0A4.4322,4.4322,0,0,1,26.05,15ZM23,35H12V32H9V21h3V32h6.6232a1.5,1.5,0,0,1-1.0569-2.565l6.73-6.7312A2.4027,2.4027,0,0,1,25.9952,22H34L25,34V26.2433l-5.3127,5.3133A1.4949,1.4949,0,0,1,18.6232,32H23Zm13,0H26.75l9.0409-12.0545A2.4693,2.4693,0,0,1,36,24Z"/>
</svg>
