<svg id="dhl_icons" xmlns="http://www.w3.org/2000/svg" width="48" height="48" viewBox="0 0 48 48">
  <path d="M40,22a1.9914,1.9914,0,0,0-1.7226,1H36.95a12.9288,12.9288,0,0,0-3.3238-7.7156l3.6488-3.6488a2,2,0,1,0-1.41-1.41l-3.68,3.68A12.9319,12.9319,0,0,0,25,11.0505V9.7226a2,2,0,1,0-2,0v1.3279a12.9319,12.9319,0,0,0-7.1846,2.8548l-3.68-3.68a2,2,0,1,0-1.41,1.41l3.6488,3.6488A12.9288,12.9288,0,0,0,11.0505,23H9.7226a2,2,0,1,0,0,2h1.3279a12.9319,12.9319,0,0,0,2.8548,7.1846l-3.18,3.18a2,2,0,1,0,1.41,1.41l3.1488-3.1488A12.9288,12.9288,0,0,0,23,36.95v1.3279a2,2,0,1,0,2,0V36.95a12.9288,12.9288,0,0,0,7.7156-3.3238l3.1488,3.1488a2,2,0,1,0,1.41-1.41l-3.18-3.18A12.9319,12.9319,0,0,0,36.95,25h1.3279A1.9965,1.9965,0,1,0,40,22ZM22.5,32A1.5,1.5,0,1,1,24,30.5,1.5,1.5,0,0,1,22.5,32Zm-1-8A3.5,3.5,0,1,1,25,20.5,3.5,3.5,0,0,1,21.5,24Zm9,3A2.5,2.5,0,1,1,33,24.5,2.5,2.5,0,0,1,30.5,27Z"/>
</svg>
