<svg id="dhl_icons" xmlns="http://www.w3.org/2000/svg" width="48" height="48" viewBox="0 0 48 48">
  <path d="M23.7764,33.3213,15.1014,42H8V34.8987L16.675,26.22ZM42.64,12.6187,37.37,7.3481a1.2951,1.2951,0,0,0-1.8311,0L25.216,17.6755l7.1014,7.1014L42.64,14.45A1.2947,1.2947,0,0,0,42.64,12.6187Zm-20.78,4.53a2.6939,2.6939,0,0,1-.7436-2.208,8.0611,8.0611,0,0,0-8.02-8.9255,8.137,8.137,0,0,0-2.0961.2742l5.1155,5.1154a.7671.7671,0,0,1,0,1.085l-4.6293,4.6294a.7675.7675,0,0,1-1.085,0L5.2868,12.0034a8.0649,8.0649,0,0,0,7.791,10.1612,8.1639,8.1639,0,0,0,.86-.0455,3.03,3.03,0,0,1,.3136-.0166,2.6561,2.6561,0,0,1,1.8944.76L34.0956,40.812A4.0405,4.0405,0,0,0,39.81,35.0979Z"/>
</svg>
