<svg id="dpdhl_icons" xmlns="http://www.w3.org/2000/svg" width="48" height="48" viewBox="0 0 48 48">
  <polygon points="14 21 4 21 4 20 4 19 14 19 14 21"/>
  <polygon points="14 25 7 25 7 24 7 23 14 23 14 25"/>
  <polygon points="14 29 10 29 10 28 10 27 14 27 14 29"/>
  <g>
    <path d="M44,17.0018A1.0018,1.0018,0,0,0,42.9982,16H17.0018A1.0018,1.0018,0,0,0,16,17.0018V21H44Z"/>
    <path d="M16,31.9982A1.0018,1.0018,0,0,0,17.0018,33H42.9982A1.0018,1.0018,0,0,0,44,31.9982V23H16ZM36,27h5v3H36Z"/>
  </g>
</svg>
