<svg id="dhl_icons" xmlns="http://www.w3.org/2000/svg" width="48" height="48" viewBox="0 0 48 48">
  <path d="M25.812,33.7881v.5039q0,2.1606-1.86,2.16H22.8354V31.6279h1.1163Q25.812,31.6279,25.812,33.7881Zm-9.1084-2.2324H15.4917v2.3408h1.2119A1.5075,1.5075,0,0,0,17.67,33.62a.9732.9732,0,0,0,.3418-.8037v-.1807a.9781.9781,0,0,0-.3418-.7978A1.4854,1.4854,0,0,0,16.7036,31.5557ZM28,16H40V44H8V4H28Zm1.1118,22h1.8115V35.0244H33.96v-1.5H30.9233V31.6279H34.32V30.08h-5.208Zm-9.2881-5.4a2.2429,2.2429,0,0,0-.84-1.8418,3.5256,3.5256,0,0,0-2.28-.6777H13.68V38h1.8115V35.3721h1.2119a3.52,3.52,0,0,0,2.2861-.6778,2.247,2.247,0,0,0,.834-1.8427Zm7.8,1.1162a3.6134,3.6134,0,0,0-.9541-2.6933,3.7042,3.7042,0,0,0-2.7177-.9424H21.0239V38h2.9278a3.7005,3.7005,0,0,0,2.7177-.9424,3.6134,3.6134,0,0,0,.9541-2.6933ZM30,4V14H40Z"/>
</svg>
