<svg id="dhl_icons" xmlns="http://www.w3.org/2000/svg" width="48" height="48" viewBox="0 0 48 48">
  <path d="M5,33H26.352c-.2137-.3775-.3533-.6281-.3828-.69A9.9679,9.9679,0,0,1,25,28a9.98,9.98,0,0,1,4-7.981V16l2-2L18.345,4.4507a2.2321,2.2321,0,0,0-2.69,0L3,14l2,2ZM9,16h6v6H9Zm26,4a8.0015,8.0015,0,0,0-8,8,7.9673,7.9673,0,0,0,.7757,3.452C27.9554,31.8292,35,44,35,44s7.0447-12.1709,7.2243-12.5481A7.9707,7.9707,0,0,0,43,28,8.0017,8.0017,0,0,0,35,20Zm0,11.25A3.25,3.25,0,1,1,38.25,28,3.25,3.25,0,0,1,35,31.25Z"/>
</svg>
