<svg id="dhl_icons" xmlns="http://www.w3.org/2000/svg" width="48" height="48" viewBox="0 0 48 48">
  <path d="M31.8723,15.1934A35.6259,35.6259,0,0,1,32.9834,23H25V15.9746A37.4157,37.4157,0,0,0,31.8723,15.1934ZM34.9736,23H43.95a19.87,19.87,0,0,0-3.9767-11,21.95,21.95,0,0,1-6.1222,2.6968A36.827,36.827,0,0,1,34.9736,23ZM16.1277,15.1934A35.6259,35.6259,0,0,0,15.0166,23H23V15.9746A37.4157,37.4157,0,0,1,16.1277,15.1934Zm.5631-1.9165A35.4739,35.4739,0,0,0,23,13.9751V5.1221C20.3053,5.7783,18.0988,9.042,16.6908,13.2769Zm14.6184,0C29.9012,9.042,27.6947,5.7783,25,5.1221v8.853A35.4739,35.4739,0,0,0,31.3092,13.2769Zm1.9793-.4932a20.2433,20.2433,0,0,0,5.3981-2.3267,19.9437,19.9437,0,0,0-10.7815-6.07C30.1414,6.0112,32.0249,8.978,33.2885,12.7837ZM23,32.0254V25H15.0166a35.6259,35.6259,0,0,0,1.1111,7.8066A37.4157,37.4157,0,0,1,23,32.0254Zm-6.3092,2.6977c1.408,4.2349,3.6145,7.4986,6.3092,8.1548v-8.853A35.4739,35.4739,0,0,0,16.6908,34.7231ZM13.0264,25H4.0505A19.87,19.87,0,0,0,8.0272,36a21.95,21.95,0,0,1,6.1222-2.6968A36.827,36.827,0,0,1,13.0264,25ZM27.9051,43.6128a19.9437,19.9437,0,0,0,10.7815-6.07,20.2433,20.2433,0,0,0-5.3981-2.3267C32.0249,39.022,30.1414,41.9888,27.9051,43.6128Zm3.4041-8.89A35.4739,35.4739,0,0,0,25,34.0249v8.853C27.6947,42.2217,29.9012,38.958,31.3092,34.7231Zm2.5414-1.42A21.95,21.95,0,0,1,39.9728,36,19.87,19.87,0,0,0,43.95,25H34.9736A36.827,36.827,0,0,1,33.8506,33.3032ZM14.7115,35.2163A20.2433,20.2433,0,0,0,9.3134,37.543a19.9437,19.9437,0,0,0,10.7815,6.07C17.8586,41.9888,15.9751,39.022,14.7115,35.2163ZM20.0949,4.3872a19.9437,19.9437,0,0,0-10.7815,6.07,20.2433,20.2433,0,0,0,5.3981,2.3267C15.9751,8.978,17.8586,6.0112,20.0949,4.3872Zm-5.9455,10.31A21.95,21.95,0,0,1,8.0272,12,19.87,19.87,0,0,0,4.0505,23h8.9759A36.827,36.827,0,0,1,14.1494,14.6968Zm17.7229,18.11A35.6259,35.6259,0,0,0,32.9834,25H25v7.0254A37.4157,37.4157,0,0,1,31.8723,32.8066Z"/>
</svg>
