<svg id="dhl_icons" xmlns="http://www.w3.org/2000/svg" width="48" height="48" viewBox="0 0 48 48">
  <path d="M13,26h6a5,5,0,0,0,10,0h6a2.34,2.34,0,0,1,2.2783,2l1.633,9H9.0876l1.6315-9A2.3423,2.3423,0,0,1,13,26ZM8.7251,39,8,43H40l-.7258-4ZM26.0017,21H21.9983A.9984.9984,0,0,0,21,21.9983v1.0034A.9984.9984,0,0,0,21.9983,24H28.48A3.5242,3.5242,0,0,0,32,20.48V18.9244a3.7489,3.7489,0,0,0-.0215-7.351,7.9893,7.9893,0,0,0-15.957,0A3.7489,3.7489,0,0,0,16.75,19H18V12a6,6,0,0,1,12,0v8.48A1.5222,1.5222,0,0,1,28.48,22H27v-.0017A.9984.9984,0,0,0,26.0017,21Z"/>
</svg>
