<svg id="dhl_icons" xmlns="http://www.w3.org/2000/svg" width="48" height="48" viewBox="0 0 48 48">
  <path d="M34,14.5A3.5,3.5,0,1,1,37.5,18,3.5,3.5,0,0,1,34,14.5Zm.1285,11.1821L34.7928,30H45l-1.8015-9.0073A1.2348,1.2348,0,0,0,41.9877,20H39.5a2,2,0,0,1-4,0H33.0123a1.2348,1.2348,0,0,0-1.2108.9927l-.4085,2.0422A3.1358,3.1358,0,0,1,34.1285,25.6821ZM10.5,18A3.5,3.5,0,1,0,7,14.5,3.5,3.5,0,0,0,10.5,18Zm6.161,5.3049-.4625-2.3122A1.2348,1.2348,0,0,0,14.9877,20H12.5a2,2,0,0,1-4,0H6.0123a1.2348,1.2348,0,0,0-1.2108.9927L3,30H14.2072l.6643-4.3179A3.1358,3.1358,0,0,1,16.661,23.3049ZM24.5,22A4.5,4.5,0,1,0,20,17.5,4.5,4.5,0,0,0,24.5,22Zm7.6517,3.9863A1.1631,1.1631,0,0,0,31.002,25H27.5a3,3,0,0,1-6,0H17.998a1.1631,1.1631,0,0,0-1.15.9863L15,38H34Z"/>
</svg>
