<svg id="dpdhl_icons" xmlns="http://www.w3.org/2000/svg" width="48" height="48" viewBox="0 0 48 48">
  <g>
    <path d="M33,22.0507V16H24.4852l3-3H31V11H27.3463L24.1732,7.8268,16,16H13.1716l9.5873-9.5873L20.64,4.294a1.0038,1.0038,0,0,0-1.42,0L12.5147,11H5.9958a1.9919,1.9919,0,0,0-1.9919,1.9919V15H4V32.9673A2.0327,2.0327,0,0,0,6.0327,35h16.018C22.0232,34.6694,22,34.3375,22,34A12.01,12.01,0,0,1,33,22.0507ZM7.5147,16H7.2859A1.4054,1.4054,0,0,1,6,14.5,1.4054,1.4054,0,0,1,7.2859,13h3.2288Z"/>
    <path d="M34,24A10,10,0,1,0,44,34,10,10,0,0,0,34,24Zm1.2217,5.0459L34.89,35.7725H33.11l-.3169-6.7266Zm-.2188,9.833a1.609,1.609,0,0,1-1.998,0,1.2682,1.2682,0,0,1,0-1.8623,1.5849,1.5849,0,0,1,1.998,0,1.284,1.284,0,0,1,0,1.8623Z"/>
  </g>
</svg>
