<svg id="dpdhl_icons" xmlns="http://www.w3.org/2000/svg" width="48" height="48" viewBox="0 0 48 48">
  <path d="M31.4486,14.3906a2.1613,2.1613,0,0,1,2.16-2.1592H33.61a2.16,2.16,0,1,1-2.1609,2.1592ZM14.7571,24A9.2428,9.2428,0,1,1,24,33.2427,9.2424,9.2424,0,0,1,14.7571,24Zm3.2438,0A6,6,0,1,0,24,18,6,6,0,0,0,18.0009,24ZM6.1089,31.4209C6.02,29.502,6,28.8882,6,24s.02-5.502.109-7.4209A13.2021,13.2021,0,0,1,6.945,12.21,9.2031,9.2031,0,0,1,12.21,6.9453a13.1925,13.1925,0,0,1,4.3691-.8364C18.4991,6.0205,19.1132,6,24.0014,6s5.5018.0215,7.421.1089a13.1731,13.1731,0,0,1,4.3691.8364A9.2061,9.2061,0,0,1,41.0549,12.21a13.2,13.2,0,0,1,.836,4.3691c.0873,1.9189.1076,2.5327.1076,7.4209s-.02,5.5-.1076,7.4209a13.1641,13.1641,0,0,1-.836,4.3691A9.2031,9.2031,0,0,1,35.79,41.0547a13.1958,13.1958,0,0,1-4.3691.8364C29.5018,41.98,28.8882,42,24,42s-5.5008-.0215-7.421-.1089a13.2045,13.2045,0,0,1-4.3691-.8364A9.2031,9.2031,0,0,1,6.945,35.79,13.2021,13.2021,0,0,1,6.1089,31.4209ZM9.2446,24c0,4.8071.0174,5.377.1046,7.2744a9.9422,9.9422,0,0,0,.6192,3.3428,5.9591,5.9591,0,0,0,3.4169,3.415,9.9361,9.9361,0,0,0,3.3426.6192c1.8968.0874,2.4652.1049,7.272.1049s5.3769-.0175,7.2742-.1049a9.9345,9.9345,0,0,0,3.3427-.6192,5.9593,5.9593,0,0,0,3.4168-3.415,9.9894,9.9894,0,0,0,.6192-3.3428c.0873-1.8989.1047-2.4673.1047-7.2744s-.0174-5.375-.1047-7.2739a9.9422,9.9422,0,0,0-.6192-3.3428,5.9589,5.9589,0,0,0-3.4168-3.417,10.0222,10.0222,0,0,0-3.3427-.6191C29.3752,9.2617,28.8046,9.2427,24,9.2427s-5.3746.0171-7.272.1045a9.9454,9.9454,0,0,0-3.3426.6191,5.9587,5.9587,0,0,0-3.4169,3.417,10.0138,10.0138,0,0,0-.6192,3.3428C9.2634,18.625,9.2446,19.1934,9.2446,24Z"/>
</svg>
