<svg id="dhl_icons" xmlns="http://www.w3.org/2000/svg" width="48" height="48" viewBox="0 0 48 48">
  <path d="M26.4749,34.96l-6.3761,6.3759a4.9823,4.9823,0,0,1-7.0469,0L6.6638,34.9482a4.9827,4.9827,0,0,1,0-7.0468L18.0016,16.5635a4.9824,4.9824,0,0,1,7.047,0l4.961,4.9609a1.0013,1.0013,0,0,1,0,1.416l-2.12,2.12L22.22,19.3916a.9831.9831,0,0,0-1.39,0L9.4922,30.73a.9831.9831,0,0,0,0,1.39L15.88,38.5078a.9829.9829,0,0,0,1.39,0l4.9424-4.9424A4.9768,4.9768,0,0,0,26.4749,34.96ZM41.3362,13.0518,34.9481,6.6641a4.9823,4.9823,0,0,0-7.0469,0L21.5251,13.04a4.9768,4.9768,0,0,1,4.2621,1.3946L30.73,9.4922a.9829.9829,0,0,1,1.39,0L38.5078,15.88a.9831.9831,0,0,1,0,1.39L27.17,28.6084a.9831.9831,0,0,1-1.39,0L20.1109,22.94l-2.12,2.12a1.0013,1.0013,0,0,0,0,1.416l4.961,4.9609a4.9824,4.9824,0,0,0,7.047,0L41.3362,20.0986A4.9827,4.9827,0,0,0,41.3362,13.0518Z"/>
</svg>
