<svg id="dhl_icons" xmlns="http://www.w3.org/2000/svg" width="48" height="48" viewBox="0 0 48 48">
  <path d="M39.5355,14.071l-6.47,6.47a1.6739,1.6739,0,0,1-2.3674,0l-.1772-.1771L27.49,23.5908,25.1583,21.389,39.5355,7A5,5,0,0,1,39.5355,14.071ZM19.7374,26.8143,8.4224,38.1386a1.9687,1.9687,0,1,0,2.827,2.74L22.1057,29.322ZM6.0513,11.2405l-.7072.7072,9.8994,9.8993a1,1,0,0,0,1.4145,0l.5858-.5858L35.775,40.8826a1.9688,1.9688,0,0,0,2.8234.04l.6707-.6706a1.9689,1.9689,0,0,0-.04-2.8235L19.6074,18.8976l.5858-.5858a1,1,0,0,0,0-1.4145L10.2939,6.9979l-.7071.7071,5.6589,5.659-1.4142,1.4142L8.1725,9.1193l-.707.7071,5.6589,5.6589L11.71,16.9Z"/>
</svg>
