<svg id="dhl_icons" xmlns="http://www.w3.org/2000/svg" width="48" height="48" viewBox="0 0 48 48">
  <path d="M39,6H15V43H39a2,2,0,0,0,2-2V8A2,2,0,0,0,39,6ZM28,14a4,4,0,1,1-4,4A4,4,0,0,1,28,14ZM21,34l.8909-8.0184A1.1035,1.1035,0,0,1,22.9877,25H33.0123a1.1035,1.1035,0,0,1,1.0968.9816L35,34ZM12.9915,6V43H9V40H7.9813A.9812.9812,0,0,1,7,39.0187V36.9813A.9812.9812,0,0,1,7.9813,36H9V31H7.9813A.9812.9812,0,0,1,7,30.0187V27.9813A.9812.9812,0,0,1,7.9813,27H9V22H7.9813A.9812.9812,0,0,1,7,21.0187V18.9813A.9812.9812,0,0,1,7.9813,18H9V13H7.9813A.9812.9812,0,0,1,7,12.0187V9.9813A.9812.9812,0,0,1,7.9813,9H9V6Z"/>
</svg>
