<svg id="dhl_icons" xmlns="http://www.w3.org/2000/svg" width="48" height="48" viewBox="0 0 48 48">
  <path d="M28,38.6039a11.8277,11.8277,0,0,1-5.1719-1.5067,5.1861,5.1861,0,0,0-1.5132-.6031c-.6474-.06-1.352.5772-1.9741,1.1431a5.5039,5.5039,0,0,1-1.1479.8833,2.0966,2.0966,0,0,1-1.9546.1025,2.4151,2.4151,0,0,1-1.18-1.8891,7.2641,7.2641,0,0,1-.08-1.0191c-.0371-1.2148-.1045-1.2153-.75-1.2187h-.0039c-.7134,0-2.2295,1.1777-3.2754,4.3472L9.05,38.2163c1.1479-3.477,3.1777-5.72,5.1748-5.72H14.24c2.6416.0142,2.7061,2.1377,2.7373,3.1577a5.3623,5.3623,0,0,0,.0518.7373,1.5931,1.5931,0,0,0,.1143.4053,1.06,1.06,0,0,0,.1552-.065,5.0012,5.0012,0,0,0,.6968-.5737c.8384-.7632,1.9844-1.8081,3.5186-1.6538a6.4673,6.4673,0,0,1,2.2143.8076A9.8732,9.8732,0,0,0,28,36.585V33.4517l9-8.9045V16H25V4H6V43H37V34.715l-3.8477,3.8889ZM10,14h9v2H10Zm0,9H27v2H10Zm27-9H27V4ZM30,34.2864,42.493,21.9258l2.1851,2.1851L32.3176,36.6039H30Z"/>
</svg>
