<svg id="dpdhl_icons" xmlns="http://www.w3.org/2000/svg" viewBox="0 0 48 48"><rect x="5" y="8" width="38" height="4"/><rect x="7" y="14" width="10" height="11"/><rect x="7" y="27" width="10" height="6"/><rect x="31" y="14" width="10" height="11"/><rect x="31" y="27" width="10" height="6"/><path d="M23.6158,32.8419a1.1324,1.1324,0,1,0-1.1322-1.1325A1.1326,1.1326,0,0,0,23.6158,32.8419Z"/><path d="M19,41H29V14H19Zm2.0828-6.1852.8054-.8122h.7975l-.8053.8122Zm1.8733,0h-.7975l.8053-.8122h.7976Zm1.7957,0-.8053-.8122h.7975l.8054.8122Zm1.0758,0-.8054-.8122H25.82l.8053.8122ZM21,16h6V26H21Zm.0037,14.5942.6141-.1955a2.4332,2.4332,0,0,0,.31,1.6081A1.6852,1.6852,0,0,1,23.613,30a1.6593,1.6593,0,0,1,1.7179,1.6746,5.2479,5.2479,0,0,0,.2542-1.352L27,30.6748a3.2248,3.2248,0,0,1-3.2067,3.1146A2.8132,2.8132,0,0,1,21.0037,30.5942Z"/><rect x="7" y="35" width="10" height="6"/><rect x="31" y="39" width="10" height="2"/><rect x="31" y="35" width="10" height="2"/></svg>