<svg id="dhl_icons" xmlns="http://www.w3.org/2000/svg" width="48" height="48" viewBox="0 0 48 48">
  <path d="M10.5649,27.5355l9.9,9.9L19.05,38.8492l-9.8994-9.9ZM40.9706,7.0294,38.98,18.3118A2.3787,2.3787,0,0,1,38.319,19.58L28.2426,29.657l.6063,6.6684a2.379,2.379,0,0,1-.687,1.8975l-2.0406,2.04L7.7366,21.8787l2.0406-2.0406a2.3788,2.3788,0,0,1,1.8974-.687l6.6685.6062L28.42,9.6809a2.3781,2.3781,0,0,1,1.2686-.66Zm-8.4853,8.4852a3,3,0,1,0,0,4.2427A3,3,0,0,0,32.4853,15.5146Zm-21.92,17.6778L9.1508,31.7782,5.6152,35.3137l1.4142,1.4142Zm.7072,7.7782,1.4142,1.4142,3.5355-3.5356-1.4142-1.4141Zm.7071-6.3639L6.3223,40.2634l1.4143,1.4143,5.6568-5.6569Z"/>
</svg>
