<svg id="dhl_icons" xmlns="http://www.w3.org/2000/svg" width="48" height="48" viewBox="0 0 48 48">
  <path d="M44,5v6H31v5H25V8a3,3,0,0,1,3-3ZM27,19H25V29h2Zm2,0V29h2V19H29ZM15,24a3,3,0,1,0-3-3A3,3,0,0,0,15,24Zm24,2.5A2.5,2.5,0,1,0,36.5,29,2.5,2.5,0,0,0,39,26.5ZM21.5,26A1.5,1.5,0,1,0,20,24.5,1.5,1.5,0,0,0,21.5,26Zm18.3569,9.2573a1.9989,1.9989,0,0,0-2.6-1.1142L27.6147,38H19a1,1,0,0,1,0-2h8a2,2,0,0,0,0-4H21.8281l-2.414-2.4141A2,2,0,0,0,18,29H12a2,2,0,0,0-1.2.4L8,31.5V28H4V44H8V42H28a1.9943,1.9943,0,0,0,.7427-.1431l10-4A2,2,0,0,0,39.8569,35.2573Z"/>
</svg>
