<svg id="dpdhl_icons" xmlns="http://www.w3.org/2000/svg" width="48" height="48" viewBox="0 0 48 48">
  <path d="M31.9521,19.0315c-6.6541,0-12.0487,4.4739-12.0487,9.9919s5.3946,9.9925,12.0487,9.9925a14.3263,14.3263,0,0,0,3.9327-.5481,1.21,1.21,0,0,1,.3542-.0525,1.2723,1.2723,0,0,1,.64.1838l2.6377,1.5159a.4577.4577,0,0,0,.2315.0745.4.4,0,0,0,.4018-.4,1.1889,1.1889,0,0,0-.0646-.2918c-.0156-.0568-.34-1.2631-.5432-2.0156a.9679.9679,0,0,1-.0418-.2549.796.796,0,0,1,.3372-.6511A9.3966,9.3966,0,0,0,44,29.0234C44,23.5054,38.6062,19.0315,31.9521,19.0315Zm-4.0165,8.3938a1.599,1.599,0,1,1,1.6068-1.5991A1.6026,1.6026,0,0,1,27.9356,27.4253Zm8.0322,0a1.599,1.599,0,1,1,1.6067-1.5991A1.6026,1.6026,0,0,1,35.9678,27.4253Zm-4.0159-9.3369c.2642,0,.5254.0078.7853.02C31.648,12.3806,25.6706,8,18.4577,8,10.4731,8,4,13.3682,4,19.9912a11.2737,11.2737,0,0,0,4.9955,9.0625.9567.9567,0,0,1,.4048.7815,1.12,1.12,0,0,1-.0512.3062c-.2435.903-.6325,2.35-.651,2.4182A1.3953,1.3953,0,0,0,8.62,32.91a.4808.4808,0,0,0,.4822.4794A.5392.5392,0,0,0,9.38,33.3l3.1651-1.8183a1.5217,1.5217,0,0,1,.7683-.2207,1.4449,1.4449,0,0,1,.4245.0632,17.1937,17.1937,0,0,0,4.7194.6575c.2662,0,.5311-.0071.7938-.0193a9.2082,9.2082,0,0,1-.485-2.9387C18.7665,22.9844,24.67,18.0884,31.9519,18.0884Zm-8.6747-3.853A1.9183,1.9183,0,1,1,21.35,16.1536,1.9232,1.9232,0,0,1,23.2772,14.2354Zm-9.639,3.8366a1.9183,1.9183,0,1,1,1.9277-1.9184A1.9233,1.9233,0,0,1,13.6382,18.072Z"/>
</svg>
