<svg id="dhl_icons" xmlns="http://www.w3.org/2000/svg" width="48" height="48" viewBox="0 0 48 48">
  <path d="M27,40.9985A3,3,0,1,1,24,38,3.0015,3.0015,0,0,1,27,40.9985ZM6.2637,20.2822C6.5107,19.9951,12.4468,13.25,24,13.25s17.4893,6.7451,17.7271,7.0215l.1618-.1362,3.3325-4.1626A29.98,29.98,0,0,0,24,7.75,29.9817,29.9817,0,0,0,2.7788,15.9722l3.3834,4.2241Zm2.7151,3.4307,3.4587,4.3179A15.5808,15.5808,0,0,1,24,23.25a15.5251,15.5251,0,0,1,11.5659,4.7832l3.4582-4.3193A21.1936,21.1936,0,0,0,24,17.75,20.9319,20.9319,0,0,0,8.9788,23.7129ZM24,27.75a12.2157,12.2157,0,0,0-8.7616,3.7778l3.4689,4.3306A7.0951,7.0951,0,0,1,24,33.25a7.2419,7.2419,0,0,1,5.2951,2.6162l3.4654-4.3286A12.4412,12.4412,0,0,0,24,27.75Z"/>
</svg>
