<svg id="dhl_icons" xmlns="http://www.w3.org/2000/svg" width="48" height="48" viewBox="0 0 48 48">
  <path d="M16,38v4H6V37.9839A1.9977,1.9977,0,0,1,8,36h6A2.0115,2.0115,0,0,1,16,38ZM11,27a3.5,3.5,0,1,0,3.5,3.5A3.5,3.5,0,0,0,11,27Zm12,0a3.5,3.5,0,1,0,3.5,3.5A3.5,3.5,0,0,0,23,27Zm3,9H20a2.0115,2.0115,0,0,0-2,2v4H28V38A2.0115,2.0115,0,0,0,26,36ZM4,6H30V25H4Zm4,7H26V11H8Zm0,6H20V17H8ZM39,9a3.5,3.5,0,1,0,3.5,3.5A3.5,3.5,0,0,0,39,9Zm2.9966,9H36.0034a1.9755,1.9755,0,0,0-1.9978,2l1.9978,22h5.9933l1.9977-22A1.9755,1.9755,0,0,0,41.9966,18Z"/>
</svg>
