<svg id="dpdhl_icons" xmlns="http://www.w3.org/2000/svg" width="48" height="48" viewBox="0 0 48 48">
  <g>
    <path d="M4.08,25a6.9911,6.9911,0,0,0,13.841,0Z"/>
    <path d="M30.08,25a6.9911,6.9911,0,0,0,13.841,0Z"/>
    <path d="M36.9482,14.2361,41.3745,23h2.2408l-5.05-10H41V11H26.8163a2.9829,2.9829,0,0,0-5.6326,0H7v2H9.3289L4.3794,23H6.6108l4.3374-8.7639L15.3745,23h2.2408L12.5648,13h8.6189a2.9876,2.9876,0,0,0,1.8753,1.8346L19,40H29L24.941,14.8346A2.9876,2.9876,0,0,0,26.8163,13h8.5126L30.3794,23h2.2314Z"/>
  </g>
</svg>
