<svg id="dhl_icons" xmlns="http://www.w3.org/2000/svg" width="48" height="48" viewBox="0 0 48 48">
  <path d="M43,8H5A1.0038,1.0038,0,0,0,4,9V33a1.0038,1.0038,0,0,0,1,1H43a1.0038,1.0038,0,0,0,1-1V9A1.0038,1.0038,0,0,0,43,8ZM21.1641,27.627a7.077,7.077,0,0,1-2.7471.5205,6.4707,6.4707,0,0,1-3.2983-.8018,5.4313,5.4313,0,0,1-2.1436-2.2783,7.5506,7.5506,0,0,1-.76-3.4961v-1.207a7.5545,7.5545,0,0,1,.76-3.4971,5.4418,5.4418,0,0,1,2.1436-2.2783,6.4707,6.4707,0,0,1,3.2983-.8018A6.166,6.166,0,0,1,23.2036,15.89l-1.831,1.9766a3.7315,3.7315,0,0,0-2.81-1.373,2.819,2.819,0,0,0-2.3413,1.03,4.6558,4.6558,0,0,0-.8223,2.9649v.958a4.711,4.711,0,0,0,.8115,2.9551,2.78,2.78,0,0,0,2.3311,1.04,3.895,3.895,0,0,0,1.53-.3115,4.2669,4.2669,0,0,0,1.4253-1.041l1.8315,1.9775A5.8534,5.8534,0,0,1,21.1641,27.627Zm12.4243,0a7.077,7.077,0,0,1-2.7471.5205,6.4707,6.4707,0,0,1-3.2983-.8018,5.4313,5.4313,0,0,1-2.1436-2.2783,7.5506,7.5506,0,0,1-.76-3.4961v-1.207a7.5545,7.5545,0,0,1,.76-3.4971,5.4418,5.4418,0,0,1,2.1436-2.2783,6.4707,6.4707,0,0,1,3.2983-.8018A6.166,6.166,0,0,1,35.6279,15.89l-1.831,1.9766a3.7313,3.7313,0,0,0-2.81-1.373,2.819,2.819,0,0,0-2.3413,1.03,4.6564,4.6564,0,0,0-.8223,2.9649v.958a4.71,4.71,0,0,0,.8116,2.9551,2.78,2.78,0,0,0,2.331,1.04,3.8946,3.8946,0,0,0,1.53-.3115,4.2669,4.2669,0,0,0,1.4253-1.041l1.8315,1.9775A5.8534,5.8534,0,0,1,33.5884,27.627ZM6,36H42v4H6Z"/>
</svg>
