<svg id="dhl_icons" xmlns="http://www.w3.org/2000/svg" width="48" height="48" viewBox="0 0 48 48">
  <path d="M43.1946,32.3848c1.0047,2.456,1.1066,4.5429.0717,5.935-.8687,1.1685-2.4283,1.7217-4.4679,1.7217-3.307,0-7.876-1.4617-12.7977-4.1121,1.2721-.7861,2.5451-1.6406,3.8079-2.552,3.779,1.81,6.9617,2.6641,8.99,2.6641a3.9917,3.9917,0,0,0,1.22-.15,4.5623,4.5623,0,0,0-.4652-1.9365,4.0033,4.0033,0,1,1,3.641-1.57ZM29.3763,31.2224C21.855,36.8145,14.138,40.0415,9.2144,40.0415c-2.0395,0-3.5992-.5532-4.4679-1.7217C1.7808,34.3311,8,24.686,18.6364,16.7776c.5255-.3906,1.0519-.7669,1.5783-1.1343-4.6584-2.5181-8.6209-3.6848-11-3.6848a3.9931,3.9931,0,0,0-1.22.15,4.6114,4.6114,0,0,0,.4746,1.939A4.0053,4.0053,0,1,1,4.82,15.5981c-.9974-2.4472-1.105-4.53-.0729-5.9179.8686-1.1685,2.4283-1.7217,4.4679-1.7217,3.75,0,9.1216,1.8765,14.7919,5.24,5.67-3.3632,11.0419-5.24,14.7919-5.24,2.04,0,3.5993.5532,4.4679,1.7217C46.232,13.6689,40.0132,23.314,29.3763,31.2224Zm-2.3866-3.21c9.8564-7.3284,13.2079-14.1067,13.0291-15.9041a3.98,3.98,0,0,0-1.22-.15c-2.38,0-6.3425,1.167-11.0009,3.6851.5263.3671,1.0527.7434,1.5781,1.134,1.3419.9978,2.5945,2.0256,3.7832,3.0637-.8188.8955-1.757,1.8391-2.8232,2.8186q-1.53-1.315-3.3467-2.6724c-1.0085-.75-2.004-1.4389-2.9832-2.0781-.9792.6392-1.9749,1.3284-2.9834,2.0781a58.8269,58.8269,0,0,0-4.8442,4.0049,57.9465,57.9465,0,0,0,4.8442,4.02c.3979.2958.791.57,1.185.8491-1.3158.8286-2.5919,1.5571-3.8056,2.1784a61.389,61.389,0,0,1-5.0355-4.22c-3.999,4.3811-5.4935,7.86-5.373,9.0718a3.9917,3.9917,0,0,0,1.22.15C12.6869,36.0415,19.53,33.5591,26.99,28.0125ZM24.0008,41c-.7427,0-1.7285-.8787-2.687-2.4663-1.25.6172-2.4815,1.166-3.6768,1.6291C19.3666,43.1729,21.579,45,24.0008,45c2.4239,0,4.638-1.8306,6.3682-4.8452Q28.58,39.4615,26.69,38.53C25.7309,40.12,24.7441,41,24.0008,41Zm0-34c.7441,0,1.7322.8821,2.6924,2.4756C27.9456,8.8579,29.1764,8.31,30.37,7.8479,28.64,4.8315,26.4254,3,24.0008,3s-4.6376,1.83-6.3677,4.8442c1.1941.462,2.4251,1.01,3.6778,1.6272C22.27,7.88,23.2573,7,24.0008,7Z"/>
</svg>
