<svg id="dhl_icons" xmlns="http://www.w3.org/2000/svg" width="48" height="48" viewBox="0 0 48 48">
  <path d="M10,43V41H36v2ZM37.2593,32H33.7055A7.02,7.02,0,0,1,29,36.7055V39H17V36.7055A7.007,7.007,0,0,1,12,30V17H34v3h3.2593A3.7449,3.7449,0,0,1,41,23.7407v4.5186A3.7449,3.7449,0,0,1,37.2593,32ZM34,30h3.2593A1.7408,1.7408,0,0,0,39,28.2593V23.7407A1.7408,1.7408,0,0,0,37.2593,22H34ZM22.7476,10.1643A7.0513,7.0513,0,0,0,25,5H23a5.1143,5.1143,0,0,1-1.7476,3.8357A7.0513,7.0513,0,0,0,19,14h2A5.1143,5.1143,0,0,1,22.7476,10.1643Zm5,0A7.0513,7.0513,0,0,0,30,5H28a5.1143,5.1143,0,0,1-1.7476,3.8357A7.0513,7.0513,0,0,0,24,14h2A5.1143,5.1143,0,0,1,27.7476,10.1643Z"/>
</svg>
