<svg id="dhl_icons" xmlns="http://www.w3.org/2000/svg" width="48" height="48" viewBox="0 0 48 48">
  <path d="M43.4365,19.347l-.0079-.0372q-.0288-.1192-.059-.2378-.0946-.3753-.21-.7641l-.0105-.0351c-.0132-.0442-.1517-.4841-.1648-.5239l-.0223-.0681h0a20.0338,20.0338,0,1,0-8.516,23.3434l-1.98-3.4713a15.9879,15.9879,0,1,1,6.3668-19.542A17.2326,17.2326,0,0,1,39.6669,23c.045,3.9269-2.0675,6.4888-5.2246,6.5554a2.5151,2.5151,0,0,1-1.9431-.7561,2.808,2.808,0,0,1-.735-2.05V14.4748H26.7508v3.2426l-.044.0844a5.9145,5.9145,0,0,0-2.2473-2.81A6.1654,6.1654,0,0,0,21,14a6.0922,6.0922,0,0,0-5.1183,2.4619A10.2882,10.2882,0,0,0,14,23v2a9.6578,9.6578,0,0,0,1.9257,6.4159,6.3855,6.3855,0,0,0,5.2929,2.42,6.4215,6.4215,0,0,0,6.007-3.4993,5.939,5.939,0,0,0,2.6359,2.5462,8.9748,8.9748,0,0,0,4.2362.9531,9.0689,9.0689,0,0,0,7.1809-3.2668A11.2749,11.2749,0,0,0,43.8474,22.76,14.7823,14.7823,0,0,0,43.4365,19.347ZM26.4044,27.1357a4.0312,4.0312,0,0,1-3.371,1.9906,2.9848,2.9848,0,0,1-2.55-1.2344,5.6932,5.6932,0,0,1-.9074-3.436v-1.08a5.7818,5.7818,0,0,1,.9074-3.4783,2.982,2.982,0,0,1,2.55-1.2309,4.1626,4.1626,0,0,1,3.371,2.0292Z"/>
</svg>
