<svg id="dhl_icons" xmlns="http://www.w3.org/2000/svg" width="48" height="48" viewBox="0 0 48 48">
  <path d="M41.3346,40H27v3l-5.9977-6L27,31v3h7.39l-2.6947-4.6672,5.1961-3L43.06,37.0164A1.9887,1.9887,0,0,1,41.3346,40ZM24,16.0042l3.6964,6.4023L25.0992,23.906,33.2943,26.1l2.1973-8.1941-2.599,1.5005L25.725,6.9919a1.9917,1.9917,0,0,0-3.45,0l-6.17,10.6872,5.1961,3ZM13.61,34l3.6921-6.3948,2.6,1.501-2.1973-8.1941L9.51,23.1062l2.5964,1.499L4.94,37.0164A1.9887,1.9887,0,0,0,6.6654,40H19.0023V34Z"/>
</svg>
