<svg id="dhl_icons" xmlns="http://www.w3.org/2000/svg" width="48" height="48" viewBox="0 0 48 48">
  <path d="M13,15a9,9,0,1,0,9,9A9,9,0,0,0,13,15Zm2.8844,12.6987a3.3362,3.3362,0,0,1-1.7916.95V30H12.0935V28.6938a5.3176,5.3176,0,0,1-1.4532-.372A4.8206,4.8206,0,0,1,9.46,27.63l.9872-1.5948a4.7062,4.7062,0,0,0,1.141.6075,3.789,3.789,0,0,0,1.3267.228,1.7935,1.7935,0,0,0,1.01-.228.7156.7156,0,0,0,.3321-.6231q0-.5764-.8328-.88l-1.2189-.4252A4.0529,4.0529,0,0,1,10.4319,23.62a2.3743,2.3743,0,0,1-.5705-1.5947,2.4318,2.4318,0,0,1,.6169-1.6787,3.1672,3.1672,0,0,1,1.6152-.9365V18h1.9993v1.3066a6.186,6.186,0,0,1,1.2669.3189,5.2691,5.2691,0,0,1,1.1027.5771l-.9407,1.625a3.5283,3.5283,0,0,0-2.16-.6982,1.8034,1.8034,0,0,0-.8711.1821.7091.7091,0,0,0-.1236,1.1016,2.0252,2.0252,0,0,0,.6866.3564l1.1566.4253a4.6445,4.6445,0,0,1,1.7046,1.0181,2.2563,2.2563,0,0,1,.6244,1.6709A2.5625,2.5625,0,0,1,15.8844,27.6987ZM34,22a9,9,0,1,0-9-9A9,9,0,0,0,34,22Zm-4.1117-8.584h.8023v-.8481h-.8023v-1.543h.9561A4.3544,4.3544,0,0,1,32.287,8.5566a3.9671,3.9671,0,0,1,2.6-.88A4.1044,4.1044,0,0,1,38.1117,9.05l-1.3579,1.4351A2.6638,2.6638,0,0,0,35.89,9.83a2.2553,2.2553,0,0,0-.8952-.1777,1.7828,1.7828,0,0,0-1.7742,1.373H35.566v1.543H32.989v.8481h2.577V14.96H33.2206a1.77,1.77,0,0,0,1.7742,1.3886A2.2553,2.2553,0,0,0,35.89,16.17a2.6638,2.6638,0,0,0,.8638-.6553l1.3579,1.4341a4.1019,4.1019,0,0,1-3.2249,1.374,3.9958,3.9958,0,0,1-2.6073-.88A4.27,4.27,0,0,1,30.8444,14.96h-.9561ZM35,26a9,9,0,1,0,9,9A9,9,0,0,0,35,26Zm3.5482,8.458v1.7275H36.0724v.8638h2.4758v1.7271H36.0724V40H33.9417V38.7764H31.4659V37.0493h2.4758v-.8638H31.4659V34.458H32.92L30.9048,30.5h2.4037L34.95,34.2134h.2876L36.8784,30.5h2.2168L37.08,34.458Z"/>
</svg>
