<svg id="dhl_icons" xmlns="http://www.w3.org/2000/svg" width="48" height="48" viewBox="0 0 48 48">
  <path d="M21,10h1v2H20V10Zm3,0v2h2V10H24Zm4,0v2h2V10H28Zm-8,4v2h2V14H20Zm4,0v2h2V14H24Zm-4,4v2h2V18H20ZM16,38.364V41a1.0016,1.0016,0,0,0,1,1H37a1.0016,1.0016,0,0,0,1-1V16.364l-2,2V39H18V36.364ZM44.8284,6.7071l-36,36L6,39.8787l10-10V6a1.0016,1.0016,0,0,1,1-1H37a1.0016,1.0016,0,0,1,1,1V7.8787l4-4ZM36,9.8787V7H18V27.8787L25.8787,20H24V18h2v1.8787L29.8787,16H28V14h2v1.8787L33.8787,12H32V10h2v1.8787ZM7.4771,13a8.4947,8.4947,0,0,0,2.4772,6l1.4516-1.44a6.4627,6.4627,0,0,1,0-9.12L9.9543,7A8.4941,8.4941,0,0,0,7.4771,13ZM12.472,9.4976a4.9027,4.9027,0,0,0,0,7.0048l1.4223-1.4108a2.8931,2.8931,0,0,1,0-4.1832ZM8.9066,20.0391a9.9771,9.9771,0,0,1,0-14.0783L7.4873,4.553a11.9736,11.9736,0,0,0,0,16.8939Z"/>
</svg>
