<svg id="dhl_icons" xmlns="http://www.w3.org/2000/svg" width="48" height="48" viewBox="0 0 48 48">
  <path d="M11,4V44a1.9977,1.9977,0,0,0,2,2H35a1.9977,1.9977,0,0,0,2-2V4a1.9977,1.9977,0,0,0-2-2H13A1.9977,1.9977,0,0,0,11,4ZM35,42H13V5H35ZM15,10V9a.9992.9992,0,0,1,1-1h1a.9992.9992,0,0,1,1,1v1a.9992.9992,0,0,1-1,1H16A.9992.9992,0,0,1,15,10Zm5,0V9a.9992.9992,0,0,1,1-1h1a.9992.9992,0,0,1,1,1v1a.9992.9992,0,0,1-1,1H21A.9992.9992,0,0,1,20,10Zm5,0V9a.9992.9992,0,0,1,1-1h1a.9992.9992,0,0,1,1,1v1a.9992.9992,0,0,1-1,1H26A.9992.9992,0,0,1,25,10Zm5,0V9a.9992.9992,0,0,1,1-1h1a.9992.9992,0,0,1,1,1v1a.9992.9992,0,0,1-1,1H31A.9992.9992,0,0,1,30,10ZM15,15V14a.9992.9992,0,0,1,1-1h1a.9992.9992,0,0,1,1,1v1a.9992.9992,0,0,1-1,1H16A.9992.9992,0,0,1,15,15Zm5,0V14a.9992.9992,0,0,1,1-1h1a.9992.9992,0,0,1,1,1v1a.9992.9992,0,0,1-1,1H21A.9992.9992,0,0,1,20,15Zm5,0V14a.9992.9992,0,0,1,1-1h1a.9992.9992,0,0,1,1,1v1a.9992.9992,0,0,1-1,1H26A.9992.9992,0,0,1,25,15Zm5,0V14a.9992.9992,0,0,1,1-1h1a.9992.9992,0,0,1,1,1v1a.9992.9992,0,0,1-1,1H31A.9992.9992,0,0,1,30,15ZM15,20V19a.9992.9992,0,0,1,1-1h1a.9992.9992,0,0,1,1,1v1a.9992.9992,0,0,1-1,1H16A.9992.9992,0,0,1,15,20Zm5,0V19a.9992.9992,0,0,1,1-1h1a.9992.9992,0,0,1,1,1v1a.9992.9992,0,0,1-1,1H21A.9992.9992,0,0,1,20,20Zm5,0V19a.9992.9992,0,0,1,1-1h1a.9992.9992,0,0,1,1,1v1a.9992.9992,0,0,1-1,1H26A.9992.9992,0,0,1,25,20Zm5,0V19a.9992.9992,0,0,1,1-1h1a.9992.9992,0,0,1,1,1v1a.9992.9992,0,0,1-1,1H31A.9992.9992,0,0,1,30,20Z"/>
</svg>
