<svg id="dhl_icons" xmlns="http://www.w3.org/2000/svg" width="48" height="48" viewBox="0 0 48 48">
  <path d="M16.0215,24.5654H15.0156V21.0273h.95v.6172a1.3922,1.3922,0,0,1,.4268-.4961,1.1006,1.1006,0,0,1,.6557-.19.9364.9364,0,0,1,.9644.7,1.5513,1.5513,0,0,1,.4512-.5029,1.1381,1.1381,0,0,1,.68-.1973.932.932,0,0,1,.791.3672,1.7007,1.7007,0,0,1,.2773,1.041v2.1992H19.2061V22.4287a.7831.7831,0,0,0-.1182-.4541.4315.4315,0,0,0-.3814-.1709.6173.6173,0,0,0-.35.1006.8055.8055,0,0,0-.2393.2471v2.414H17.1108V22.4287a.7485.7485,0,0,0-.125-.4541.4424.4424,0,0,0-.3813-.1709.6186.6186,0,0,0-.3438.0977.8019.8019,0,0,0-.2392.2353Zm5.9946,0h1.0474V20.8887H24.41v-.9024H20.67v.9024h1.3462Zm2.2617,0,1.3531-4.5791h1.5678l1.3531,4.5791H27.4556l-.2705-.9785H25.5894l-.271.9785Zm1.54-1.8242h1.1382l-.5-1.8115h-.1391ZM30.05,21.36h.1108l1.4849,3.205h1.3389V19.9863h-.9712v3.2051h-.1109L30.418,19.9863H29.0791v4.5791H30.05ZM13,2H35a1.9977,1.9977,0,0,1,2,2V44a1.9977,1.9977,0,0,1-2,2H13a1.9977,1.9977,0,0,1-2-2V4A1.9977,1.9977,0,0,1,13,2ZM35,5H13V42H35Z"/>
</svg>
