<svg id="dhl_icons" xmlns="http://www.w3.org/2000/svg" width="48" height="48" viewBox="0 0 48 48">
  <path d="M10,6V41a1.0016,1.0016,0,0,0,1,1H31a1.0016,1.0016,0,0,0,1-1V6a1.0016,1.0016,0,0,0-1-1H11A1.0016,1.0016,0,0,0,10,6Zm2,1H30V39H12ZM38.0458,21l-1.4515-1.44a6.4625,6.4625,0,0,0,0-9.1193L38.0459,9a8.5043,8.5043,0,0,1,0,11.9992Zm-3.9365-3.9049a2.967,2.967,0,0,0,0-4.1894l1.4541-1.4424a5.0111,5.0111,0,0,1,0,7.0742ZM44,15a11.96,11.96,0,0,1-3.4872,8.4467l-1.4192-1.4078a9.9769,9.9769,0,0,0,0-14.0778l1.4192-1.4078A11.96,11.96,0,0,1,44,15ZM27,17l1,2H22V17Zm-7,2H14l1-2h5ZM14,31H28V21H14Zm9-4h3v2H23Z"/>
</svg>
