<svg id="dhl_icons" xmlns="http://www.w3.org/2000/svg" width="48" height="48" viewBox="0 0 48 48">
  <path d="M31,18V6a2,2,0,0,0-2-2H6A2,2,0,0,0,4,6V21a2,2,0,0,0,2,2H9v7l7-7h1V37H32l7,7V37h5V18Zm-.3023,4.0459h1.1934l-.332,6.7266H29.78l-.3169-6.7266ZM15.689,10.4893,14.4224,9.2529A3.1489,3.1489,0,0,1,15.6968,8.22a4.6745,4.6745,0,0,1,2.0283-.4,4.1182,4.1182,0,0,1,2.6016.77,2.592,2.592,0,0,1,.9878,2.1718,2.6323,2.6323,0,0,1-.5879,1.7266,3.4257,3.4257,0,0,1-1.9908,1.0186l-.166,1.2666H16.79L16.6846,12.54l.7387-.1357a2.4365,2.4365,0,0,0,1.2369-.543,1.21,1.21,0,0,0,.392-.9043,1.12,1.12,0,0,0-.3994-.8974,1.7349,1.7349,0,0,0-1.1538-.34,2.2533,2.2533,0,0,0-1.0635.2344A3.0437,3.0437,0,0,0,15.689,10.4893Zm.9956,7.39a1.277,1.277,0,0,1,0-1.87,1.6021,1.6021,0,0,1,1.9907,0,1.2772,1.2772,0,0,1,0,1.87,1.5985,1.5985,0,0,1-1.9907,0Zm14.9878,14a1.6091,1.6091,0,0,1-1.9981,0,1.2682,1.2682,0,0,1,0-1.8623,1.585,1.585,0,0,1,1.9981,0,1.284,1.284,0,0,1,0,1.8623Z"/>
</svg>
