<svg id="dhl_icons" xmlns="http://www.w3.org/2000/svg" width="48" height="48" viewBox="0 0 48 48">
  <path d="M24.3936,31.2461H21.8877l2.2959-3.668h.21ZM8,17H40V44H8ZM28.9854,34.9h2.03V30.0137a1.7245,1.7245,0,0,1,.4971-.49,1.3034,1.3034,0,0,1,.7207-.1953.924.924,0,0,1,.7978.3438,1.5112,1.5112,0,0,1,.252.916V34.9h2.03V30.4629a3.3844,3.3844,0,0,0-.5674-2.1074,1.9343,1.9343,0,0,0-1.6309-.7344,2.2075,2.2075,0,0,0-1.2461.3418,2.6966,2.6966,0,0,0-.8535.9316V25.1h-2.03Zm-8.8477-1.9883h4.2559V34.9h2.0722V32.9121h1.2178v-1.666H26.4658V25.66H23.68l-3.542,5.6836Zm-7.4512-5.8242,1.3447,1.1914a3.4807,3.4807,0,0,1,.7491-.7285,1.6434,1.6434,0,0,1,.9726-.2813,1.4457,1.4457,0,0,1,.9239.2871,1.0141,1.0141,0,0,1,.3642.8477,1.5877,1.5877,0,0,1-.2168.791,3.9433,3.9433,0,0,1-.6933.8477l-3.29,3.2187V34.9h6.5244v-1.793H15.5986l1.792-1.7207a8.5892,8.5892,0,0,0,1.33-1.5469,2.9523,2.9523,0,0,0,.4482-1.6171,2.5,2.5,0,0,0-.8886-2.045,3.5687,3.5687,0,0,0-2.3311-.7265,3.635,3.635,0,0,0-1.9531.4687A5.1946,5.1946,0,0,0,12.6865,27.0879ZM36,6V4H32V6H16V4H12V6H8v9H40V6Z"/>
</svg>
