<svg id="dhl_icons" xmlns="http://www.w3.org/2000/svg" width="48" height="48" viewBox="0 0 48 48">
  <path d="M42,27V21l-4.6355-.9271-1.1374-2.7462,2.6221-3.9334L34.6066,9.1508l-3.9333,2.6221-2.7462-1.1374L27,6H21l-.9271,4.6355-2.7462,1.1374L13.3934,9.1508,9.1508,13.3933l2.6221,3.9334-1.1374,2.7462L6,21v6l4.6355.9271,1.1374,2.7462L9.1508,34.6067l4.2426,4.2425,3.9333-2.6221,2.7462,1.1374L21,42h6l.9271-4.6355,2.7462-1.1374,3.9333,2.6221,4.2426-4.2425-2.6221-3.9334,1.1374-2.7462ZM24,31a7,7,0,1,1,7-7A7,7,0,0,1,24,31Z"/>
</svg>
