<svg id="dhl_icons" xmlns="http://www.w3.org/2000/svg" width="48" height="48" viewBox="0 0 48 48">
  <path d="M24,10.3945l3.6654,7.4229a3.6869,3.6869,0,0,0,2.7766,2.0164l8.1939,1.19L32.7075,26.8a3.6853,3.6853,0,0,0-1.061,3.2638l1.4,8.1567-7.3306-3.8519a3.6892,3.6892,0,0,0-3.4313,0L14.9537,38.22l1.4-8.1567a3.6856,3.6856,0,0,0-1.061-3.2639L9.3641,21.0238l8.1939-1.19a3.6869,3.6869,0,0,0,2.7766-2.0164L24,10.3945M24,8a1.6674,1.6674,0,0,0-1.5129.94l-3.9463,7.9916a1.6869,1.6869,0,0,1-1.27.9224L8.4464,19.1356a1.686,1.686,0,0,0-.9351,2.8762l6.3852,6.2206a1.6853,1.6853,0,0,1,.4852,1.4925l-1.5073,8.7837a1.6827,1.6827,0,0,0,2.448,1.7776l7.8925-4.1471a1.6879,1.6879,0,0,1,1.57,0l7.8925,4.1471a1.6827,1.6827,0,0,0,2.448-1.7776l-1.5073-8.7837a1.6853,1.6853,0,0,1,.4852-1.4925l6.3852-6.2206a1.686,1.686,0,0,0-.9351-2.8762L30.73,17.854a1.6869,1.6869,0,0,1-1.27-.9224L25.5129,8.94A1.6674,1.6674,0,0,0,24,8Z"/>
</svg>
