<svg id="dpdhl_icons" xmlns="http://www.w3.org/2000/svg" width="48" height="48" viewBox="0 0 48 48">
  <g>
    <path d="M40,11A.9994.9994,0,0,0,39.0005,10H5A.9994.9994,0,0,0,4,11V14H40Z"/>
    <path d="M34,22a11.91,11.91,0,0,1,6,1.6237V18H4V32.0005A1,1,0,0,0,5,33H22.0507A12.01,12.01,0,0,1,34,22ZM13,29H7.6V24H13Z"/>
    <path d="M34,24A10,10,0,1,0,44,34,10,10,0,0,0,34,24Zm-7,8.998v-2L35.6709,31l-1.3481-1.3464,1.413-1.4151,4.77,4.7625Zm14,4.004-8.6709-.0015,1.3481,1.3464-1.413,1.4151L27.4941,35,41,35.002Z"/>
  </g>
</svg>
