<svg id="dhl_icons" xmlns="http://www.w3.org/2000/svg" width="48" height="48" viewBox="0 0 48 48">
  <path d="M20.7141,31.2859,31.2859,20.7141A7.9852,7.9852,0,0,1,20.7141,31.2859ZM37.452,14.548,32.78,19.22A9.9958,9.9958,0,0,1,19.22,32.7805l-3.8026,3.8026A20.25,20.25,0,0,0,24,38.5c9.0575,0,16.8017-5.9614,20-14.5A23.1256,23.1256,0,0,0,37.452,14.548ZM43,7,7,43,4,40l6.548-6.548A23.1256,23.1256,0,0,1,4,24C7.1983,15.4614,14.9425,9.5,24,9.5a20.25,20.25,0,0,1,8.5831,1.9169L40,4ZM28.7805,15.22A9.9957,9.9957,0,0,0,15.22,28.78l1.4945-1.4945A7.9852,7.9852,0,0,1,27.2859,16.7141Z"/>
</svg>
