<svg id="dhl_icons" xmlns="http://www.w3.org/2000/svg" width="48" height="48" viewBox="0 0 48 48">
  <path d="M46,21a7.1055,7.1055,0,0,0-6-6.9164V13.0107A2.0108,2.0108,0,0,0,37.9893,11H10.0162a2.0108,2.0108,0,0,0-2.0108,2.0107v1.0721A7.1054,7.1054,0,0,0,2,21v2a7.1054,7.1054,0,0,0,6.0054,6.9172v1.0721A2.0108,2.0108,0,0,0,10.0162,33H22a11.9256,11.9256,0,0,1,1.4538-5.7207H11v-2H24.8273A11.9438,11.9438,0,0,1,40,22.6237V16.1059A5.082,5.082,0,0,1,44,21v2a4.89,4.89,0,0,1-.6733,2.4652,12.0343,12.0343,0,0,1,1.192,1.7689A6.8931,6.8931,0,0,0,46,23ZM8.0054,27.8958A5.0822,5.0822,0,0,1,4,23V21a5.0822,5.0822,0,0,1,4.0054-4.8958ZM37,19.0146H11v-2H37ZM34,23A10,10,0,1,0,44,33,10,10,0,0,0,34,23ZM32.4092,37.7729,28.1665,33.53l1.4141-1.4141,2.8286,2.8286,6.01-6.0107,1.4141,1.414Z"/>
</svg>
