<svg id="dpdhl_icons" xmlns="http://www.w3.org/2000/svg" width="48" height="48" viewBox="0 0 48 48">
  <path d="M13.9,20.5325a.0291.0291,0,0,0,0-.032l-3.8031-6.5833a.872.872,0,0,1-.0324-.8628.8624.8624,0,0,1,.7671-.3515v0h5.6256a1.7379,1.7379,0,0,1,1.5658,1.055s3.8439,6.706,3.8669,6.7431c-.2276.4014-6.0723,10.7383-6.0723,10.7383a1.7191,1.7191,0,0,1-1.5341,1.0862H8.6594a.8286.8286,0,0,1-.7354-.3833.871.871,0,0,1,0-.863ZM32.9562,6.0718S20.8389,27.561,20.44,28.2664c.0205.0383,7.9919,14.6623,7.9919,14.6623A1.7594,1.7594,0,0,0,30.0031,44H35.621a.83.83,0,0,0,.7465-.3594.8765.8765,0,0,0-.0115-.8694l-7.93-14.4875a.0322.0322,0,0,1,0-.0366L40.88,6.2275a.8815.8815,0,0,0,.0119-.8681A.8342.8342,0,0,0,40.1437,5H34.4615v0h.0007A1.6484,1.6484,0,0,0,32.9562,6.0718Z"/>
</svg>
